<?xml version="1.0" ?>
<!-- Uploaded to: SVG Repo, www.svgrepo.com, Generator: SVG Repo Mixer Tools -->
<svg width="800px" height="800px" viewBox="0 0 128 128" version="1.1" xml:space="preserve" xmlns="http://www.w3.org/2000/svg" xmlns:xlink="http://www.w3.org/1999/xlink">
<style type="text/css">
	.st0{fill:#69A401;}
	.st1{fill:#EFE691;}
	.st2{fill:#B20000;}
	.st3{fill:#DF1801;}
	.st4{fill:#F40603;}
	.st5{fill:#FFEEEE;}
	.st6{fill:#847B3C;}
	.st7{fill:#CEB600;}
	.st8{fill:#F8CD02;}
	.st9{fill:#F7C800;}
	.st10{fill:#F6E8B9;}
	.st11{fill:#F6E9CA;}
	.st12{fill:#CF8A11;}
	.st13{fill:#286F0D;}
	.st14{fill:#63271D;}
	.st15{fill:#EB8102;}
	.st16{fill:#E37303;}
	.st17{fill:#D97102;}
	.st18{fill:#BF6302;}
	.st19{fill:#EA9735;}
	.st20{fill:#3E1A01;}
	.st21{fill:#C96A0A;}
	.st22{fill:#CE2335;}
	.st23{fill:#C0242D;}
	.st24{fill:#BA1A23;}
	.st25{fill:#F9DCC7;}
	.st26{fill:#DBE2CE;}
	.st27{fill:#7D4B12;}
	.st28{fill:#75480C;}
	.st29{fill:#66410C;}
	.st30{fill:#88550D;}
	.st31{fill:#FFFEE9;}
	.st32{fill:#9B9F1A;}
	.st33{fill:#F6E177;}
	.st34{fill:#443A00;}
	.st35{fill:#305209;}
	.st36{fill:#7F7C04;}
	.st37{fill:#BAB424;}
	.st38{fill:#F7CF43;}
	.st39{fill:#DE940E;}
	.st40{fill:#5F570A;}
	.st41{fill:#175424;}
	.st42{fill:#215B25;}
	.st43{fill:#1B5020;}
	.st44{fill:#C0F9C0;}
	.st45{fill:#F3DA78;}
	.st46{fill:#BC441C;}
	.st47{fill:#148E2E;}
	.st48{fill:#283767;}
	.st49{fill:#425285;}
	.st50{fill:#CFDFFF;}
	.st51{fill:#1F2C55;}
	.st52{fill:#776220;}
	.st53{fill:#90236B;}
	.st54{fill:#5D1A47;}
	.st55{fill:#99499A;}
	.st56{fill:#FCCAFA;}
	.st57{fill:#917C31;}
	.st58{fill:#F4C435;}
	.st59{fill:#F1BC02;}
	.st60{fill:#F0B102;}
	.st61{fill:#F1F7BA;}
	.st62{fill:#E3DCB9;}
	.st63{fill:#BD6800;}
	.st64{fill:#E19704;}
	.st65{fill:#B2CA2B;}
	.st66{fill:#AFC20F;}
	.st67{fill:#B9CB00;}
	.st68{fill:#E5F392;}
	.st69{fill:#F78202;}
	.st70{fill:#F79613;}
	.st71{fill:#331F07;}
	.st72{fill:#402B16;}
	.st73{fill:#669404;}
	.st74{fill:#F58E13;}
	.st75{fill:#D87117;}
	.st76{fill:#216604;}
	.st77{fill:#286D08;}
	.st78{fill:#C8C625;}
	.st79{fill:#2C441F;}
	.st80{fill:#F1E6BF;}
	.st81{fill:#F2BE2E;}
	.st82{fill:#BF8F33;}
	.st83{fill:#568804;}
	.st84{fill:#669614;}
	.st85{fill:#688E0C;}
	.st86{fill:#4C7005;}
	.st87{fill:#A0CA49;}
	.st88{fill:#99BD70;}
	.st89{fill:#78AA25;}
	.st90{fill:#4B7C23;}
	.st91{fill:#EADBC8;}
	.st92{fill:#F0D5B0;}
	.st93{fill:#DF2B2B;}
	.st94{fill:#D1262C;}
	.st95{fill:#B7252C;}
	.st96{fill:#46670C;}
	.st97{fill:#F49D5B;}
	.st98{fill:#F57A55;}
	.st99{fill:#F1C3A7;}
	.st100{fill:#CC0917;}
	.st101{fill:#DC1035;}
	.st102{fill:#9BAC0F;}
	.st103{fill:#667A1D;}
	.st104{fill:#7A9D18;}
	.st105{fill:#F6F7E6;}
	.st106{fill:#F0194D;}
	.st107{fill:#362420;}
	.st108{fill:#530618;}
	.st109{fill:#44041A;}
	.st110{fill:#490419;}
	.st111{fill:#F8A459;}
	.st112{fill:#871B22;}
	.st113{fill:#600613;}
	.st114{fill:#F8C790;}
	.st115{fill:#447832;}
	.st116{fill:#7C473D;}
	.st117{fill:#441432;}
	.st118{fill:#51163F;}
	.st119{fill:#5B1A41;}
	.st120{fill:#FCEBF9;}
	.st121{fill:#ECE5CE;}
	.st122{fill:#BC3E2C;}
	.st123{fill:#A60F26;}
	.st124{fill:#C61632;}
	.st125{fill:#BD1331;}
	.st126{fill:#F8B772;}
	.st127{fill:#F7DDAC;}
	.st128{fill:#850E11;}
	.st129{fill:#191200;}
	.st130{fill:#553D2D;}
	.st131{fill:#F9E2D2;}
	.st132{fill:#CA8937;}
	.st133{fill:#462D16;}
	.st134{fill:#6D8916;}
	.st135{fill:#96B54E;}
	.st136{fill:#E3E2DE;}
	.st137{fill:#261811;}
	.st138{fill:#525C11;}
	.st139{fill:#14581E;}
	.st140{fill:#3D7712;}
	.st141{fill:#9BC148;}
	.st142{fill:#E22434;}
	.st143{fill:#C6DD9E;}
	.st144{fill:#F89A07;}
	.st145{fill:#F7A410;}
	.st146{fill:#F8AB19;}
	.st147{fill:#F7B81C;}
	.st148{fill:#E5870A;}
	.st149{fill:#97A304;}
	.st150{fill:#A88C5C;}
	.st151{fill:#ADC21E;}
	.st152{fill:#A3BA0B;}
	.st153{fill:#8D9E08;}
	.st154{fill:#E0DAB9;}
	.st155{fill:#684219;}
	.st156{fill:#777F05;}
	.st157{fill:#F2E9C4;}
	.st158{fill:#CBB465;}
	.st159{fill:#FFF5CA;}
	.st160{fill:#E52828;}
	.st161{fill:#F87302;}
	.st162{fill:#FF7B22;}
	.st163{fill:#FC7F10;}
	.st164{fill:#F8A200;}
	.st165{fill:#F8DC91;}
	.st166{fill:#FFFFFF;}
	.st167{fill:#F5D7D5;}
	.st168{fill:#EDA07A;}
	.st169{fill:#FCBEBE;}
	.st170{fill:#EAD991;}
	.st171{fill:#582612;}
</style>
<g id="_x33_0_Mulberry"/>
<g id="_x32_9_Star_Fruit"/>
<g id="_x32_8_Apricot"/>
<g id="_x32_7_Litchi"/>
<g id="_x32_6_Kiwi"/>
<g id="_x32_5_Jackfruit">
<g id="XMLID_44_">
<g id="XMLID_18_">
<g id="XMLID_6_">
<path class="st35" d="M41.806,8.706c-2.43,3.799-2.729,8.24-1.233,12.104c4.335-0.573,8.369-2.906,10.799-6.706      c2.43-3.799,2.73-8.24,1.233-12.104C48.271,2.573,44.237,4.906,41.806,8.706z" id="XMLID_17_"/>
<path class="st14" d="M40.901,29.64c-1.104,0-2-0.896-2-2L38.9,23.629c0-3.353-1.657-6.447-4.433-8.276      c-0.922-0.608-1.177-1.849-0.569-2.771c0.608-0.922,1.848-1.179,2.771-0.569c3.902,2.572,6.231,6.914,6.231,11.616l0.001,4.011      C42.901,28.744,42.007,29.64,40.901,29.64L40.901,29.64z"/>
</g>
<path class="st36" d="M76.436,79.18l0.57-0.411c3.469-2.506,3.578-7.621,0.218-10.271l-0.946-0.746l0.622-0.776     c2.715-3.389,1.364-8.429-2.685-10.017l-0.497-0.195l0.484-1.05c1.824-3.953-0.914-8.497-5.273-8.75h0l0.288-1.362     c0.866-4.101-2.916-7.669-6.978-6.582l0,0l-0.007-1.132c-0.027-4.144-4.62-6.638-8.128-4.414l0,0l-0.2-0.89     c-0.883-3.924-5.85-5.208-8.536-2.206l-0.291,0.325l-0.12-0.251c-1.761-3.678-6.98-3.769-8.87-0.155l-0.314,0.6l0,0     c-2.576-3.114-7.608-2.003-8.623,1.904l-0.27,1.038c-0.096,0.035-0.13,0.048-0.225,0.083l0,0     c-3.186-2.218-7.573-0.045-7.722,3.826l-0.064,1.666c-0.211,0.147-0.297,0.207-0.507,0.354l-0.162-0.052     c-3.521-1.122-6.977,1.888-6.333,5.515l0.412,2.319c-0.201,0.241-0.295,0.355-0.496,0.596l-0.773,0.008     c-3.488,0.034-5.83,3.579-4.483,6.786l1.043,2.483c-0.172,0.38-0.262,0.58-0.434,0.96l0,0c-3.778,1.283-5.214,5.857-2.844,9.057     l0.706,0.954c-0.051,0.457-0.102,0.914-0.142,1.376l-0.418,0.302c-3.166,2.286-3.265,6.953-0.199,9.371l0.703,0.555     c0.051,0.495,0.103,0.99,0.167,1.479L4.37,82.398c-2.329,2.907-1.17,7.23,2.303,8.592l0.689,0.27     c0.159,0.47,0.328,0.934,0.499,1.396l-0.416,0.902c-1.632,3.536,0.817,7.6,4.716,7.826h0c0.24,0.38,0.48,0.76,0.73,1.13     l-0.329,1.559c-0.743,3.519,2.502,6.581,5.987,5.648l0.409-0.11c0.28,0.258,0.569,0.504,0.856,0.752l0.006,0.969     c0.025,3.789,4.224,6.069,7.432,4.036l0,0c0.369,0.152,0.502,0.207,0.871,0.358l0.08,0.356c0.859,3.814,5.686,5.062,8.297,2.145     l0.1-0.112c0.262,0.037,0.349,0.05,0.611,0.087l0,0c1.711,3.575,6.785,3.664,8.621,0.151l0.278-0.532     c0.168-0.018,0.223-0.023,0.391-0.041l0,0c2.481,3,7.329,1.93,8.308-1.834l0.394-1.518c0.031-0.012,0.042-0.016,0.074-0.027     l0.322,0.224c3.097,2.156,7.362,0.044,7.507-3.719l0.093-2.426l0.866,0.276c3.423,1.091,6.783-1.835,6.157-5.362l-0.556-3.132     l1.578-0.015c3.391-0.033,5.668-3.479,4.358-6.597l-1.421-3.382h0c4.141-1.406,5.714-6.419,3.117-9.926L76.436,79.18z" id="XMLID_101_"/>
<g id="XMLID_1009_">
<ellipse class="st37" cx="26.969" cy="42.309" id="XMLID_26_" rx="1.715" ry="2.172"/>
<ellipse class="st37" cx="30.398" cy="56.026" id="XMLID_39_" rx="1.715" ry="2.172"/>
<ellipse class="st37" cx="17.024" cy="52.825" id="XMLID_40_" rx="1.715" ry="2.172"/>
<ellipse class="st37" cx="38.235" cy="38.194" id="XMLID_41_" rx="1.715" ry="2.172"/>
<ellipse class="st37" cx="40.901" cy="51.682" id="XMLID_42_" rx="1.715" ry="2.172"/>
<ellipse class="st37" cx="34.074" cy="48.825" id="XMLID_43_" rx="1.715" ry="2.172"/>
<ellipse class="st37" cx="20.454" cy="60.37" id="XMLID_1380_" rx="1.715" ry="2.172"/>
<ellipse class="st37" cx="25.255" cy="51.682" id="XMLID_1382_" rx="1.715" ry="2.172"/>
<ellipse class="st37" cx="26.969" cy="67.685" id="XMLID_1383_" rx="1.715" ry="2.172"/>
<ellipse class="st37" cx="38.235" cy="62.541" id="XMLID_1384_" rx="1.715" ry="2.172"/>
<ellipse class="st37" cx="35.568" cy="69.857" id="XMLID_1391_" rx="1.715" ry="2.172"/>
<ellipse class="st37" cx="20.454" cy="72.029" id="XMLID_1394_" rx="1.715" ry="2.172"/>
<ellipse class="st37" cx="11.766" cy="67.685" id="XMLID_1395_" rx="1.715" ry="2.172"/>
<ellipse class="st37" cx="30.398" cy="77.744" id="XMLID_1397_" rx="1.715" ry="2.172"/>
<ellipse class="st37" cx="15.31" cy="79.916" id="XMLID_1410_" rx="1.715" ry="2.172"/>
<ellipse class="st37" cx="23.54" cy="83.002" id="XMLID_1413_" rx="1.715" ry="2.172"/>
<ellipse class="st37" cx="42.616" cy="76.459" id="XMLID_1414_" rx="1.715" ry="2.172"/>
<ellipse class="st37" cx="46.045" cy="66.885" id="XMLID_1416_" rx="1.715" ry="2.172"/>
<ellipse class="st37" cx="48.304" cy="57.169" id="XMLID_1417_" rx="1.715" ry="2.172"/>
<ellipse class="st37" cx="42.616" cy="44.481" id="XMLID_1418_" rx="1.715" ry="2.172"/>
<ellipse class="st37" cx="50.019" cy="50.654" id="XMLID_1419_" rx="1.715" ry="2.172"/>
<ellipse class="st37" cx="51.733" cy="40.366" id="XMLID_1421_" rx="1.715" ry="2.172"/>
<ellipse class="st37" cx="57.103" cy="48.825" id="XMLID_1422_" rx="1.715" ry="2.172"/>
<ellipse class="st37" cx="57.103" cy="60.37" id="XMLID_1423_" rx="1.715" ry="2.172"/>
<ellipse class="st37" cx="53.518" cy="72.029" id="XMLID_1426_" rx="1.715" ry="2.172"/>
<ellipse class="st37" cx="51.804" cy="82.088" id="XMLID_1427_" rx="1.715" ry="2.172"/>
<ellipse class="st37" cx="36.52" cy="82.088" id="XMLID_1428_" rx="1.715" ry="2.172"/>
<ellipse class="st37" cx="28.684" cy="94.319" id="XMLID_719_" rx="1.715" ry="2.172"/>
<ellipse class="st37" cx="18.739" cy="92.147" id="XMLID_721_" rx="1.715" ry="2.172"/>
<ellipse class="st37" cx="23.54" cy="101.838" id="XMLID_722_" rx="1.715" ry="2.172"/>
<ellipse class="st37" cx="32.113" cy="109.881" id="XMLID_723_" rx="1.715" ry="2.172"/>
<ellipse class="st37" cx="64" cy="80.831" id="XMLID_724_" rx="1.715" ry="2.172"/>
<ellipse class="st37" cx="62.285" cy="69.857" id="XMLID_725_" rx="1.715" ry="2.172"/>
<ellipse class="st37" cx="65.715" cy="61.513" id="XMLID_734_" rx="1.715" ry="2.172"/>
<ellipse class="st37" cx="72.723" cy="76.459" id="XMLID_740_" rx="1.715" ry="2.172"/>
<ellipse class="st37" cx="65.715" cy="52.825" id="XMLID_878_" rx="1.715" ry="2.172"/>
</g>
</g>
<g id="XMLID_2_">
<path class="st38" d="M123.119,92.056l0.248-0.118c1.443-0.686,2.316-1.911,2.633-3.251H34.074     c0.027,1.625,0.864,3.239,2.541,4.11l0.525,0.273c0.017,0.165,0.023,0.219,0.04,0.383c-2.961,2.434-1.904,7.191,1.81,8.15     l1.498,0.387c0.011,0.031,0.015,0.042,0.027,0.072l-0.221,0.316c-2.128,3.039-0.043,7.222,3.67,7.364l2.394,0.092l-0.272,0.849     c-1.077,3.358,1.811,6.654,5.292,6.04l3.091-0.545l0.015,1.548c0.033,3.327,3.434,5.56,6.511,4.275l3.337-1.394     c1.388,4.062,6.335,5.606,9.797,3.058l1.147-0.845l0.406,0.559c2.473,3.404,7.521,3.51,10.136,0.214l0.736-0.928l0.766,0.61     c3.345,2.664,8.319,1.338,9.887-2.634l0.192-0.487l1.036,0.475c3.902,1.79,8.386-0.897,8.636-5.173l1.344,0.282     c4.048,0.85,7.569-2.861,6.496-6.845h0l1.117-0.007c4.09-0.026,6.551-4.532,4.356-7.974l0.878-0.197     c3.873-0.866,5.14-5.739,2.178-8.374L123.119,92.056z" id="XMLID_23_"/>
<g id="XMLID_25_">
<g id="XMLID_1623_">
<ellipse class="st39" cx="55.389" cy="99.771" id="XMLID_1625_" rx="3.924" ry="5.872"/>
<ellipse class="st39" cx="104.685" cy="99.771" id="XMLID_1624_" rx="3.924" ry="5.872"/>
</g>
</g>
<ellipse class="st39" cx="71.009" cy="108.825" id="XMLID_1555_" rx="3.924" ry="5.872"/>
<ellipse class="st39" cx="89.025" cy="108.825" id="XMLID_1554_" rx="3.924" ry="5.872"/>
<g id="XMLID_1557_">
<g id="XMLID_1656_">
<path class="st40" d="M46.086,106.549l0.272-0.849l-2.394-0.092c-1.865-0.071-3.319-1.163-4.035-2.616       c-1.48,2.958,0.566,6.617,4.035,6.75l2.288,0.087C45.822,108.846,45.716,107.703,46.086,106.549z" id="XMLID_1662_"/>
<path class="st40" d="M40.293,98.244l0.221-0.316c-0.011-0.031-0.015-0.042-0.027-0.072l-1.498-0.387       c-1.443-0.373-2.478-1.321-3.039-2.48c-1.252,2.515,0.006,5.83,3.039,6.614l0.532,0.137       C39.312,100.588,39.524,99.342,40.293,98.244z" id="XMLID_1661_"/>
<path class="st40" d="M35.551,92.046c0.19-1.01,0.718-1.978,1.628-2.727c-0.017-0.165-0.023-0.219-0.04-0.383       l-0.48-0.249h-2.586C34.094,89.92,34.584,91.145,35.551,92.046z" id="XMLID_1660_"/>
<path class="st40" d="M121.262,96.582l-0.878,0.196c0.814,1.276,0.985,2.697,0.673,3.983l0.205-0.046       c3.198-0.715,4.611-4.16,3.342-6.823C124.008,95.178,122.862,96.224,121.262,96.582z" id="XMLID_1659_"/>
<path class="st40" d="M124.94,90.725c0.52-0.6,0.885-1.295,1.06-2.038h-2.093       C124.437,89.301,124.772,90,124.94,90.725z" id="XMLID_1658_"/>
<path class="st40" d="M116.028,104.753l-1.117,0.007h0c1.073,3.984-2.448,7.695-6.496,6.845l-1.344-0.282       c-0.25,4.276-4.734,6.962-8.636,5.173l-1.036-0.475l-0.192,0.487c-1.567,3.973-6.542,5.298-9.887,2.634l-0.766-0.61       l-0.736,0.928c-2.615,3.296-7.663,3.19-10.136-0.214l-0.406-0.559l-1.147,0.845c-3.462,2.549-8.409,1.005-9.797-3.058       l-3.337,1.394c-3.077,1.285-6.478-0.949-6.51-4.275l-0.015-1.548l-3.091,0.545c-2.227,0.393-4.205-0.818-5.063-2.618       l-0.228,0.711c-1.077,3.358,1.811,6.654,5.291,6.04l3.091-0.545l0.015,1.548c0.033,3.327,3.434,5.56,6.51,4.275l3.337-1.394       c1.388,4.062,6.335,5.606,9.797,3.058l1.147-0.845l0.406,0.559c2.473,3.404,7.521,3.51,10.136,0.214l0.736-0.928l0.766,0.61       c3.345,2.664,8.319,1.338,9.887-2.634l0.192-0.487l1.036,0.475c3.902,1.79,8.386-0.897,8.636-5.173l1.344,0.282       c4.048,0.85,7.569-2.861,6.496-6.845h0l1.117-0.007c3.814-0.025,6.209-3.945,4.734-7.265       C119.988,103.394,118.253,104.738,116.028,104.753z" id="XMLID_1657_"/>
</g>
</g>
</g>
</g>
</g>
<g id="_x32_4_Avacado"/>
<g id="_x32_3_Blueberry"/>
<g id="_x32_2_Purple_Grapes"/>
<g id="_x32_1_Melon"/>
<g id="_x32_0_Green_Grapes"/>
<g id="_x31_9_Papaya"/>
<g id="_x31_8_Pineapple"/>
<g id="_x31_7_Banana"/>
<g id="_x31_6_Tender_Coconut"/>
<g id="_x31_5_Strawberry"/>
<g id="_x31_4_Dragon_Fruit"/>
<g id="_x31_3_Plum"/>
<g id="_x31_2_Fig"/>
<g id="_x31_1_Peach"/>
<g id="_x31_0_Cherry"/>
<g id="_x30_9_Sapota"/>
<g id="_x30_8_Custard_Apple"/>
<g id="_x30_7_Watermelon"/>
<g id="_x30_6_Mango"/>
<g id="_x30_5_Pear"/>
<g id="_x30_4_Guava"/>
<g id="_x30_3_Pomegranate"/>
<g id="_x30_2_Orange"/>
<g id="_x30_1_Apple"/>
</svg>